<svg xmlns="http://www.w3.org/2000/svg" version="1.1" xmlns:xlink="http://www.w3.org/1999/xlink" xmlns:svgjs="http://svgjs.dev/svgjs" width="1000" height="113" viewBox="0 0 1000 113"><g transform="matrix(1,0,0,1,-0.6060539706072632,-0.372486177824328)"><svg viewBox="0 0 396 45" data-background-color="#97978d" preserveAspectRatio="xMidYMid meet" height="113" width="1000" xmlns="http://www.w3.org/2000/svg" xmlns:xlink="http://www.w3.org/1999/xlink"><g id="tight-bounds" transform="matrix(1,0,0,1,0.23999737236047736,0.14833520355836072)"><svg viewBox="0 0 395.5199999999999 44.703329301849394" height="44.703329301849394" width="395.5199999999999"><g><svg viewBox="0 0 512.495580212908 57.92439999999999" height="44.703329301849394" width="395.5199999999999"><g><svg viewBox="0 0 512.495580212908 57.92439999999999" height="57.92439999999999" width="512.495580212908"><g id="textblocktransform"><svg viewBox="0 0 512.495580212908 57.92439999999999" height="57.92439999999999" width="512.495580212908" id="textblock"><g><svg viewBox="0 0 512.495580212908 57.92439999999999" height="57.92439999999999" width="512.495580212908"><g><svg><g></g><g></g></svg></g><g><svg><g></g><g><svg></svg></g></svg></g><g id="text-0"><svg viewBox="0 0 512.495580212908 57.92439999999999" height="57.92439999999999" width="512.495580212908"><g transform="matrix(1,0,0,1,0,11.062199999999997)"><svg width="190.2" viewBox="2.549999952316284 -35 190.19000244140625 35.79999923706055" height="35.8" data-palette-color="#ffffff"><path d="M19.6 0.8Q11.55 0.8 7.05-3.55 2.55-7.9 2.55-15.75L2.55-15.75 2.55-35 14.35-35 14.35-16.1Q14.35-12.25 15.73-10.5 17.1-8.75 19.7-8.75L19.7-8.75Q22.3-8.75 23.68-10.5 25.05-12.25 25.05-16.1L25.05-16.1 25.05-35 36.65-35 36.65-15.75Q36.65-7.9 32.15-3.55 27.65 0.8 19.6 0.8L19.6 0.8ZM63 0L57.05-8.8 53.85-8.8 53.85 0 42.05 0 42.05-35 58.9-35Q63.75-35 67.35-33.4 70.95-31.8 72.9-28.8 74.85-25.8 74.85-21.8L74.85-21.8Q74.85-18.05 73.15-15.25 71.45-12.45 68.25-10.8L68.25-10.8 75.6 0 63 0ZM62.95-21.8Q62.95-23.75 61.75-24.83 60.55-25.9 58.15-25.9L58.15-25.9 53.85-25.9 53.85-17.7 58.15-17.7Q60.55-17.7 61.75-18.78 62.95-19.85 62.95-21.8L62.95-21.8ZM107.3-18.3Q110.4-17.15 112.09-14.95 113.8-12.75 113.8-9.65L113.8-9.65Q113.8-5.05 110-2.53 106.2 0 99 0L99 0 79.3 0 79.3-35 98-35Q105-35 108.57-32.5 112.15-30 112.15-25.85L112.15-25.85Q112.15-23.4 110.92-21.45 109.7-19.5 107.3-18.3L107.3-18.3ZM96.4-26.75L90.9-26.75 90.9-21.55 96.4-21.55Q100.25-21.55 100.25-24.15L100.25-24.15Q100.25-26.75 96.4-26.75L96.4-26.75ZM98-8.25Q101.9-8.25 101.9-11L101.9-11Q101.9-13.75 98-13.75L98-13.75 90.9-13.75 90.9-8.25 98-8.25ZM144.14 0L141.79-6.1 128.49-6.1 126.14 0 114.14 0 129.44-35 141.04-35 156.34 0 144.14 0ZM131.74-14.6L138.54-14.6 135.14-23.4 131.74-14.6ZM181.24-35L192.74-35 192.74 0 183.04 0 169.74-15.9 169.74 0 158.24 0 158.24-35 167.94-35 181.24-19.1 181.24-35Z" opacity="1" transform="matrix(1,0,0,1,0,0)" fill="#ffffff" class="undefined-p-0"></path></svg></g><g><svg xmlns="http://www.w3.org/2000/svg" xmlns:xlink="http://www.w3.org/1999/xlink" version="1.1" x="203.8756" y="0" viewBox="0 0 99.26300811767578 84.3759994506836" enable-background="new 0 0 99.267 84.375" xml:space="preserve" width="68.14438021290798" height="57.92439999999999" class="icon-s-0" data-fill-palette-color="accent" id="s-0"><g fill="#ffffff" data-fill-palette-color="accent"><path d="M96.785 0h-29.78c-1.372 0-2.481 1.111-2.481 2.483v79.411c0 1.371 1.109 2.481 2.481 2.481h7.443l0 0h0.003c0.326 0 0.634-0.068 0.922-0.185 0.106-0.044 0.19-0.116 0.286-0.175 0.169-0.097 0.337-0.188 0.479-0.321 0.092-0.089 0.158-0.196 0.234-0.297 0.112-0.14 0.22-0.276 0.3-0.439 0.058-0.125 0.083-0.258 0.123-0.391 0.035-0.127 0.099-0.232 0.115-0.363l4.985-39.863 4.981 39.863c0.017 0.131 0.08 0.237 0.117 0.363 0.037 0.133 0.064 0.266 0.123 0.391 0.079 0.163 0.19 0.3 0.298 0.439 0.079 0.103 0.143 0.208 0.235 0.297 0.143 0.134 0.312 0.228 0.48 0.321 0.098 0.059 0.177 0.131 0.284 0.175 0.289 0.116 0.597 0.185 0.92 0.185h0.005l0 0h7.444c1.371 0 2.481-1.11 2.481-2.481V2.483C99.267 1.111 98.156 0 96.785 0zM84.296 21.848c-0.033-0.166-0.089-0.313-0.155-0.466-0.063-0.15-0.125-0.294-0.215-0.426-0.082-0.123-0.185-0.226-0.289-0.333-0.119-0.122-0.235-0.234-0.375-0.329-0.121-0.081-0.252-0.136-0.391-0.197-0.161-0.07-0.316-0.13-0.491-0.165-0.063-0.012-0.111-0.05-0.176-0.059-0.109-0.014-0.205 0.022-0.308 0.022-0.105 0-0.203-0.036-0.309-0.022-0.067 0.008-0.115 0.046-0.178 0.059-0.174 0.035-0.329 0.095-0.489 0.165-0.14 0.059-0.272 0.117-0.392 0.199-0.143 0.094-0.255 0.205-0.375 0.324-0.106 0.108-0.208 0.213-0.293 0.338-0.088 0.131-0.149 0.272-0.213 0.421-0.065 0.154-0.122 0.303-0.155 0.469-0.016 0.063-0.053 0.114-0.06 0.179l-7.175 57.385h-2.771V4.964h24.815v74.449h-2.771l-7.174-57.385C84.35 21.962 84.311 21.911 84.296 21.848z" fill="#ffffff" data-fill-palette-color="accent"></path><path d="M39.707 0h-5.088c-1.233 0-2.279 0.907-2.457 2.127-0.437 3.032-3.062 5.319-6.104 5.319-3.043 0-5.667-2.287-6.105-5.319C19.776 0.907 18.73 0 17.497 0h-5.088C5.334 0 0 10.668 0 24.816c0 1.372 1.111 2.482 2.482 2.482h7.444v19.853c0 1.372 1.111 2.481 2.482 2.481h27.298c1.371 0 2.482-1.109 2.482-2.481V27.298h7.446c1.371 0 2.48-1.11 2.48-2.482C52.114 10.668 46.78 0 39.707 0zM39.707 14.89c-1.372 0-2.481 1.112-2.481 2.482v4.963 2.481 19.855H14.89V24.816v-2.481-4.963c0-1.371-1.111-2.482-2.481-2.482-1.371 0-2.482 1.112-2.482 2.482v4.963H5.031C5.582 11.656 9.586 4.964 12.409 4.964h2.481 0.676c1.553 4.364 5.739 7.445 10.491 7.445 4.753 0 8.938-3.081 10.492-7.445h0.676 2.481c2.822 0 6.828 6.691 7.376 17.372h-4.895v-4.963C42.188 16.001 41.078 14.89 39.707 14.89z" fill="#ffffff" data-fill-palette-color="accent"></path><path d="M17.372 57.078h-4.963c-1.371 0-2.482 1.113-2.482 2.481v14.89H4.963C2.226 74.449 0 76.677 0 79.413c0 2.737 2.226 4.963 4.963 4.963h12.409c1.37 0 2.481-1.11 2.481-2.481V59.559C19.853 58.191 18.742 57.078 17.372 57.078z" fill="#ffffff" data-fill-palette-color="accent"></path><path d="M42.188 57.078h-4.963c-1.371 0-2.482 1.113-2.482 2.481v14.89H29.78c-2.737 0-4.963 2.229-4.963 4.964 0 2.737 2.227 4.963 4.963 4.963h12.409c1.372 0 2.481-1.11 2.481-2.481V59.559C44.669 58.191 43.561 57.078 42.188 57.078z" fill="#ffffff" data-fill-palette-color="accent"></path></g></svg></g><g transform="matrix(1,0,0,1,285.69558021290794,11.062199999999994)"><svg width="226.80000000000004" viewBox="2.8499999046325684 -35 226.7899932861328 35" height="35" data-palette-color="#ffffff"><path d="M44.85 0L34.1 0 34-15.95 26.4-3.15 21.2-3.15 13.6-15.4 13.6 0 2.85 0 2.85-35 12.55-35 23.95-16.35 35.05-35 44.75-35 44.85 0ZM76.75 0L74.4-6.1 61.1-6.1 58.75 0 46.75 0 62.05-35 73.65-35 88.95 0 76.75 0ZM64.35-14.6L71.15-14.6 67.75-23.4 64.35-14.6ZM111.8 0L105.84-8.8 102.65-8.8 102.65 0 90.84 0 90.84-35 107.7-35Q112.55-35 116.15-33.4 119.75-31.8 121.7-28.8 123.65-25.8 123.65-21.8L123.65-21.8Q123.65-18.05 121.95-15.25 120.25-12.45 117.05-10.8L117.05-10.8 124.4 0 111.8 0ZM111.75-21.8Q111.75-23.75 110.55-24.83 109.34-25.9 106.95-25.9L106.95-25.9 102.65-25.9 102.65-17.7 106.95-17.7Q109.34-17.7 110.55-18.78 111.75-19.85 111.75-21.8L111.75-21.8ZM151.09 0L142.34-11.6 139.69-8.65 139.69 0 128.09 0 128.09-35 139.69-35 139.69-22.3 151.19-35 164.04-35 150.04-19.6 164.74 0 151.09 0ZM177.94-8.9L195.44-8.9 195.44 0 166.34 0 166.34-35 194.79-35 194.79-26.1 177.94-26.1 177.94-22 192.74-22 192.74-13.5 177.94-13.5 177.94-8.9ZM207.59 0L207.59-25.85 197.34-25.85 197.34-35 229.64-35 229.64-25.85 219.39-25.85 219.39 0 207.59 0Z" opacity="1" transform="matrix(1,0,0,1,0,0)" fill="#ffffff" class="undefined-p-1"></path></svg></g></svg></g></svg></g></svg></g></svg></g></svg></g><defs></defs></svg><rect width="395.5199999999999" height="44.703329301849394" fill="none" stroke="none" visibility="hidden"></rect></g></svg></g></svg>