<svg width="2500" height="1500" viewBox="0 0 2500 1500" fill="none" xmlns="http://www.w3.org/2000/svg">
<path d="M1110.09 1080.2H938.411L1045.71 420.783H1217.41L1110.09 1080.2ZM793.984 420.783L630.312 874.332L610.945 776.666L610.962 776.701L553.195 480.155C553.195 480.155 546.21 420.783 471.756 420.783H201.175L198 431.948C198 431.948 280.744 449.164 377.582 507.319L526.737 1080.21H705.613L978.752 420.783H793.984ZM2144.33 1080.2H2301.97L2164.53 420.765H2026.52C1962.79 420.765 1947.27 469.907 1947.27 469.907L1691.22 1080.2H1870.19L1905.98 982.247H2124.22L2144.33 1080.2ZM1955.42 846.939L2045.62 600.171L2096.37 846.939H1955.42ZM1704.65 579.357L1729.15 437.751C1729.15 437.751 1653.55 409 1574.74 409C1489.54 409 1287.22 446.236 1287.22 627.299C1287.22 797.656 1524.68 799.773 1524.68 889.255C1524.68 978.737 1311.69 962.703 1241.4 906.276L1215.87 1054.34C1215.87 1054.34 1292.53 1091.57 1409.65 1091.57C1526.81 1091.57 1703.55 1030.91 1703.55 865.813C1703.55 694.362 1463.96 678.399 1463.96 603.857C1463.98 529.297 1631.18 538.875 1704.65 579.357Z" fill="#2566AF"/>
<path d="M610.962 776.683L553.195 480.138C553.195 480.138 546.21 420.765 471.756 420.765H201.175L198 431.931C198 431.931 328.052 458.883 452.794 559.866C572.069 656.386 610.962 776.683 610.962 776.683Z" fill="#E6A540"/>
</svg>
