<svg xmlns="http://www.w3.org/2000/svg" version="1.1" xmlns:xlink="http://www.w3.org/1999/xlink" xmlns:svgjs="http://svgjs.dev/svgjs" width="128" height="128" viewBox="0 0 128 128"><g transform="matrix(0.8046875,0,0,0.8046875,12.760752631578946,20.23180788262563)"><svg viewBox="0 0 95 81" data-background-color="#97978d" preserveAspectRatio="xMidYMid meet" height="109" width="128" xmlns="http://www.w3.org/2000/svg" xmlns:xlink="http://www.w3.org/1999/xlink"><g id="tight-bounds" transform="matrix(1,0,0,1,-0.24049999999999727,-0.08059892465151108)"><svg viewBox="0 0 95.481 81.16119784930302" height="81.16119784930302" width="95.481"><g><svg viewBox="0 0 95.481 81.16119784930302" height="81.16119784930302" width="95.481"><g><svg viewBox="0 0 95.481 81.16119784930302" height="81.16119784930302" width="95.481"><g id="textblocktransform"><svg viewBox="0 0 95.481 81.16119784930302" height="81.16119784930302" width="95.481" id="textblock"><g><svg viewBox="0 0 95.481 81.16119784930302" height="81.16119784930302" width="95.481"><g><svg viewBox="0 0 95.481 81.16119784930302" height="81.16119784930302" width="95.481"><g><svg xmlns="http://www.w3.org/2000/svg" xmlns:xlink="http://www.w3.org/1999/xlink" version="1.1" x="0" y="0" viewBox="0 0 99.26301076727128 84.376" enable-background="new 0 0 99.267 84.375" xml:space="preserve" width="95.481" height="81.16119784930302" class="icon-icon-0" data-fill-palette-color="accent" id="icon-0"><g fill="#ffffff" data-fill-palette-color="accent"><path d="M96.785 0h-29.78c-1.372 0-2.481 1.111-2.481 2.483v79.411c0 1.371 1.109 2.481 2.481 2.481h7.443l0 0h0.003c0.326 0 0.634-0.068 0.922-0.185 0.106-0.044 0.19-0.116 0.286-0.175 0.169-0.097 0.337-0.188 0.479-0.321 0.092-0.089 0.158-0.196 0.234-0.297 0.112-0.14 0.22-0.276 0.3-0.439 0.058-0.125 0.083-0.258 0.123-0.391 0.035-0.127 0.099-0.232 0.115-0.363l4.985-39.863 4.981 39.863c0.017 0.131 0.08 0.237 0.117 0.363 0.037 0.133 0.064 0.266 0.123 0.391 0.079 0.163 0.19 0.3 0.298 0.439 0.079 0.103 0.143 0.208 0.235 0.297 0.143 0.134 0.312 0.228 0.48 0.321 0.098 0.059 0.177 0.131 0.284 0.175 0.289 0.116 0.597 0.185 0.92 0.185h0.005l0 0h7.444c1.371 0 2.481-1.11 2.481-2.481V2.483C99.267 1.111 98.156 0 96.785 0zM84.296 21.848c-0.033-0.166-0.089-0.313-0.155-0.466-0.063-0.15-0.125-0.294-0.215-0.426-0.082-0.123-0.185-0.226-0.289-0.333-0.119-0.122-0.235-0.234-0.375-0.329-0.121-0.081-0.252-0.136-0.391-0.197-0.161-0.07-0.316-0.13-0.491-0.165-0.063-0.012-0.111-0.05-0.176-0.059-0.109-0.014-0.205 0.022-0.308 0.022-0.105 0-0.203-0.036-0.309-0.022-0.067 0.008-0.115 0.046-0.178 0.059-0.174 0.035-0.329 0.095-0.489 0.165-0.14 0.059-0.272 0.117-0.392 0.199-0.143 0.094-0.255 0.205-0.375 0.324-0.106 0.108-0.208 0.213-0.293 0.338-0.088 0.131-0.149 0.272-0.213 0.421-0.065 0.154-0.122 0.303-0.155 0.469-0.016 0.063-0.053 0.114-0.06 0.179l-7.175 57.385h-2.771V4.964h24.815v74.449h-2.771l-7.174-57.385C84.35 21.962 84.311 21.911 84.296 21.848z" fill="#ffffff" data-fill-palette-color="accent"></path><path d="M39.707 0h-5.088c-1.233 0-2.279 0.907-2.457 2.127-0.437 3.032-3.062 5.319-6.104 5.319-3.043 0-5.667-2.287-6.105-5.319C19.776 0.907 18.73 0 17.497 0h-5.088C5.334 0 0 10.668 0 24.816c0 1.372 1.111 2.482 2.482 2.482h7.444v19.853c0 1.372 1.111 2.481 2.482 2.481h27.298c1.371 0 2.482-1.109 2.482-2.481V27.298h7.446c1.371 0 2.48-1.11 2.48-2.482C52.114 10.668 46.78 0 39.707 0zM39.707 14.89c-1.372 0-2.481 1.112-2.481 2.482v4.963 2.481 19.855H14.89V24.816v-2.481-4.963c0-1.371-1.111-2.482-2.481-2.482-1.371 0-2.482 1.112-2.482 2.482v4.963H5.031C5.582 11.656 9.586 4.964 12.409 4.964h2.481 0.676c1.553 4.364 5.739 7.445 10.491 7.445 4.753 0 8.938-3.081 10.492-7.445h0.676 2.481c2.822 0 6.828 6.691 7.376 17.372h-4.895v-4.963C42.188 16.001 41.078 14.89 39.707 14.89z" fill="#ffffff" data-fill-palette-color="accent"></path><path d="M17.372 57.078h-4.963c-1.371 0-2.482 1.113-2.482 2.481v14.89H4.963C2.226 74.449 0 76.677 0 79.413c0 2.737 2.226 4.963 4.963 4.963h12.409c1.37 0 2.481-1.11 2.481-2.481V59.559C19.853 58.191 18.742 57.078 17.372 57.078z" fill="#ffffff" data-fill-palette-color="accent"></path><path d="M42.188 57.078h-4.963c-1.371 0-2.482 1.113-2.482 2.481v14.89H29.78c-2.737 0-4.963 2.229-4.963 4.964 0 2.737 2.227 4.963 4.963 4.963h12.409c1.372 0 2.481-1.11 2.481-2.481V59.559C44.669 58.191 43.561 57.078 42.188 57.078z" fill="#ffffff" data-fill-palette-color="accent"></path></g></svg></g></svg></g></svg></g></svg></g></svg></g></svg></g><defs></defs></svg><rect width="95.481" height="81.16119784930302" fill="none" stroke="none" visibility="hidden"></rect></g></svg></g></svg>